<svg width="309" height="132" viewBox="0 0 309 132" fill="none" xmlns="http://www.w3.org/2000/svg">
<path d="M261.12 65.56L257.75 70.12L257.749 70.1238L257.747 70.1271L257.744 70.1292L257.74 70.13L246.83 84.891L232.54 65.56L207 31H235.57L254.6 56.75C254.61 56.76 254.62 56.76 254.62 56.77L261.12 65.56Z" fill="#3A9DAA"/>
<path d="M246.83 84.891L246.39 85.491L245.49 86.701C245.48 86.711 245.48 86.721 245.47 86.731L239.99 94.151L235.57 100.131H207L209.38 96.911C209.381 96.9034 209.384 96.8962 209.39 96.891H209.4L227.52 72.35H227.53V72.34L227.54 72.33L228.15 71.5L231.92 66.391L232.54 65.561L246.83 84.891Z" fill="#707074"/>
<g style="mix-blend-mode:multiply" opacity="0.15">
<g style="mix-blend-mode:multiply" opacity="0.15">
<path d="M246.83 84.891L246.39 85.491L245.49 86.701C245.48 86.711 245.48 86.721 245.47 86.731L239.99 94.151L239.64 93.481L228.15 71.5L231.92 66.391L232.54 65.561L246.83 84.891Z" fill="#707074"/>
</g>
</g>
<g style="mix-blend-mode:multiply" opacity="0.25">
<g style="mix-blend-mode:multiply" opacity="0.25">
<path d="M257.74 70.13L246.83 84.891L246.39 85.491L246.25 85.311C244.55 83.101 242.83 80.911 241.15 78.671C239.46 76.451 237.75 74.241 236.09 71.991L231.92 66.391L232.54 65.561L207 31C208.8 33.14 210.54 35.33 212.29 37.5C214.06 39.67 215.77 41.88 217.5 44.07C220.93 48.48 224.327 52.9133 227.69 57.37L232.69 64.09L237.65 70.84C239.31 73.09 240.92 75.37 242.56 77.63C244.01 79.64 245.43 81.67 246.86 83.69L249.09 80.85C250.03 79.65 250.98 78.44 251.95 77.25C253.88 74.87 255.76 72.48 257.74 70.13Z" fill="#707074"/>
</g>
</g>
<g style="mix-blend-mode:multiply" opacity="0.25">
<g style="mix-blend-mode:multiply" opacity="0.25">
<path d="M245.47 86.73L239.99 94.15L235.57 100.13H207C209.38 99.86 211.76 99.69 214.14 99.55C215.33 99.48 216.52 99.42 217.71 99.38C218.9 99.34 220.09 99.27 221.28 99.25C223.67 99.18 226.05 99.15 228.43 99.14C229.62 99.12 230.81 99.14 232 99.15C233.04 99.16 234.08 99.16 235.12 99.18L237.38 96.28C238.14 95.35 238.88 94.41 239.64 93.48C239.76 93.33 239.89 93.18 240.01 93.03C241.77 90.891 243.57 88.78 245.47 86.73Z" fill="#707074"/>
</g>
</g>
<g style="mix-blend-mode:screen" opacity="0.4">
<g style="mix-blend-mode:screen" opacity="0.4">
<path d="M209.39 96.8911H209.4L209.38 96.9111C209.381 96.9034 209.384 96.8963 209.39 96.8911Z" fill="white"/>
</g>
</g>
<g style="mix-blend-mode:screen" opacity="0.4">
<g style="mix-blend-mode:screen" opacity="0.4">
<path d="M227.53 72.3499C227.43 72.5499 226.58 74.2199 225.16 76.5099C224.41 77.7399 223.51 79.1499 222.5 80.6299C221.99 81.3699 221.49 82.1399 220.93 82.8999C220.37 83.6599 219.82 84.4399 219.26 85.2099C218.68 85.9799 218.11 86.7399 217.54 87.4899C216.97 88.2399 216.38 88.9499 215.83 89.6499C214.71 91.0499 213.63 92.3299 212.68 93.4099C210.9 95.4299 209.56 96.7399 209.4 96.8899L227.52 72.3499C227.53 72.3399 227.53 72.3499 227.53 72.3499Z" fill="white"/>
</g>
</g>
<g style="mix-blend-mode:screen" opacity="0.4">
<g style="mix-blend-mode:screen" opacity="0.4">
<path d="M254.6 56.75C252.81 54.76 251.09 52.71 249.41 50.66C247.71 48.59 246.05 46.5 244.4 44.4C242.75 42.3 241.13 40.17 239.54 38.03C238.02 36.02 236.56 33.98 235.07 31.95L230.3 31.86L225.03 31.68C221.52 31.52 218.01 31.34 214.5 31H235.57L254.6 56.75Z" fill="white"/>
</g>
</g>
<g style="mix-blend-mode:screen" opacity="0.3">
<g style="mix-blend-mode:screen" opacity="0.3">
<path d="M257.39 65.56L212.95 34H234.06L252.32 58.71L252.34 58.73L257.39 65.56Z" fill="white"/>
</g>
</g>
<path d="M295.345 65.56L291.975 70.12C291.975 70.1226 291.974 70.1252 291.972 70.127C291.97 70.1289 291.967 70.13 291.965 70.13L281.055 84.891L266.765 65.561L241.225 31.001H269.795L288.825 56.751C288.835 56.761 288.845 56.761 288.845 56.771L295.345 65.56Z" fill="#3B9FAD"/>
<path d="M281.055 84.891L280.615 85.491L279.715 86.701C279.705 86.711 279.705 86.721 279.695 86.731L274.215 94.151L269.795 100.131H241.225L243.605 96.911C243.606 96.9068 243.607 96.9029 243.61 96.8995C243.613 96.896 243.616 96.8931 243.62 96.891L261.74 72.351H261.75V72.341L261.76 72.331L262.37 71.501L266.14 66.391L266.76 65.561L281.055 84.891Z" fill="#707074"/>
<g style="mix-blend-mode:multiply" opacity="0.15">
<g style="mix-blend-mode:multiply" opacity="0.15">
<path d="M281.055 84.891L280.615 85.491L279.715 86.701C279.705 86.711 279.705 86.721 279.695 86.731L274.215 94.151L273.865 93.481L262.375 71.501L266.145 66.391L266.765 65.561L281.055 84.891Z" fill="#707074"/>
</g>
</g>
<g style="mix-blend-mode:multiply" opacity="0.25">
<g style="mix-blend-mode:multiply" opacity="0.25">
<path d="M291.965 70.13L281.055 84.891L280.615 85.491L280.475 85.311C278.775 83.101 277.055 80.911 275.375 78.671C273.685 76.451 271.975 74.241 270.315 71.991L266.145 66.391L266.765 65.561L241.225 31.001C243.025 33.141 244.765 35.331 246.515 37.501C248.285 39.671 249.995 41.881 251.725 44.071C255.155 48.481 258.551 52.9143 261.915 57.371L266.915 64.091L271.875 70.841C273.535 73.091 275.145 75.371 276.785 77.631C278.235 79.641 279.655 81.671 281.085 83.691L283.315 80.851C284.255 79.651 285.205 78.441 286.175 77.251C288.105 74.87 289.985 72.48 291.965 70.13Z" fill="#707074"/>
</g>
</g>
<g style="mix-blend-mode:multiply" opacity="0.25">
<g style="mix-blend-mode:multiply" opacity="0.25">
<path d="M279.695 86.73L274.215 94.15L269.795 100.13H241.225C243.605 99.86 245.985 99.69 248.365 99.55C249.555 99.48 250.745 99.42 251.935 99.38C253.125 99.34 254.315 99.27 255.505 99.25C257.895 99.18 260.275 99.15 262.655 99.14C263.845 99.12 265.035 99.14 266.225 99.15C267.265 99.16 268.305 99.16 269.345 99.18L271.605 96.28C272.365 95.35 273.105 94.41 273.865 93.48C273.985 93.33 274.115 93.18 274.235 93.03C275.995 90.891 277.795 88.78 279.695 86.73Z" fill="#707074"/>
</g>
</g>
<g style="mix-blend-mode:screen" opacity="0.4">
<g style="mix-blend-mode:screen" opacity="0.4">
<path d="M243.62 96.8911L243.6 96.9111C243.601 96.9064 243.604 96.9022 243.607 96.8987C243.611 96.8952 243.615 96.8926 243.62 96.8911Z" fill="white"/>
</g>
</g>
<g style="mix-blend-mode:screen" opacity="0.4">
<g style="mix-blend-mode:screen" opacity="0.4">
<path d="M261.755 72.3499C261.655 72.5499 260.805 74.2199 259.385 76.5099C258.635 77.7399 257.735 79.1499 256.725 80.6299C256.215 81.3699 255.715 82.1399 255.155 82.8999C254.595 83.6599 254.045 84.4399 253.485 85.2099C252.905 85.9799 252.335 86.7399 251.765 87.4899C251.195 88.2399 250.605 88.9499 250.055 89.6499C248.935 91.0499 247.855 92.3299 246.905 93.4099C245.125 95.4299 243.785 96.7399 243.625 96.8899L261.745 72.3499C261.755 72.3399 261.755 72.3499 261.755 72.3499Z" fill="white"/>
</g>
</g>
<g style="mix-blend-mode:screen" opacity="0.4">
<g style="mix-blend-mode:screen" opacity="0.4">
<path d="M288.825 56.75C287.035 54.76 285.315 52.71 283.635 50.66C281.935 48.59 280.275 46.5 278.625 44.4C276.975 42.3 275.355 40.17 273.765 38.03C272.245 36.02 270.785 33.98 269.295 31.95L264.525 31.86L259.255 31.68C255.745 31.52 252.235 31.34 248.725 31H269.795L288.825 56.75Z" fill="white"/>
</g>
</g>
<g style="mix-blend-mode:screen" opacity="0.3">
<g style="mix-blend-mode:screen" opacity="0.3">
<path d="M291.62 65.56L247.18 34H268.29L286.55 58.71L286.57 58.73L291.62 65.56Z" fill="white"/>
</g>
</g>
<path d="M37.6562 48.75H51.2734V52.7812H47.0312V90H42.2031V52.7812H37.6562V48.75ZM55.7031 48.75H60.5547V90H55.7031V48.75ZM67.2344 60.6562C67.2344 57.5312 67.4922 55.2344 68.0078 53.7656C68.5234 52.2969 69.0859 51.2188 69.6953 50.5312C71.0234 49.0312 72.9609 48.2734 75.5078 48.2578C79.0703 48.2734 81.3672 49.8438 82.3984 52.9688C82.9922 54.7656 83.2891 57.1562 83.2891 60.1406V64.7109H78.5312V60.1172C78.5312 57.4766 78.3828 55.6953 78.0859 54.7734C77.8047 53.8359 77.4609 53.2188 77.0547 52.9219C76.6484 52.6094 76.1328 52.4531 75.5078 52.4531C74.2109 52.4531 73.3125 53.0703 72.8125 54.3047C72.3281 55.5234 72.0859 57.4531 72.0859 60.0938V77.9531C72.0859 81.0781 72.3047 83.2656 72.7422 84.5156C73.1953 85.75 74.0547 86.3672 75.3203 86.3672C76.6016 86.3672 77.4531 85.7422 77.875 84.4922C78.3125 83.2422 78.5312 81.0547 78.5312 77.9297V73.3594H83.3359V77.8828C83.3359 82.2109 82.7422 85.3984 81.5547 87.4453C80.3828 89.4766 78.3281 90.4922 75.3906 90.4922C72.4531 90.4922 70.3594 89.4453 69.1094 87.3516C67.8594 85.2422 67.2344 82.0703 67.2344 77.8359V60.6562ZM101.406 48.75H106.281L98.5938 69.1172L106.82 90H101.758L94.1172 70.2656V90H89.2188V48.75H94.0703V68.4141L101.406 48.75ZM110.172 48.75H122.5V52.7812H115.023V66.8906H122.102V70.9219H115.023V85.9688H122.594V90H110.172V48.75ZM125.547 48.75H139.164V52.7812H134.922V90H130.094V52.7812H125.547V48.75ZM147.648 48.75H153.484L160.305 90H155.734L154.562 82.125H147.086L146.008 90H141.391L147.648 48.75ZM147.625 78.1875H153.953L150.695 56.3906H150.625L147.625 78.1875ZM165.25 48.75H173.898C176.352 48.75 178.117 49.2578 179.195 50.2734C180.273 51.2891 180.922 53.0156 181.141 55.4531C181.234 56.4531 181.281 58.0156 181.281 60.1406C181.281 62.25 181 64.0234 180.438 65.4609C179.891 66.8984 178.914 67.8281 177.508 68.25C178.539 68.4219 179.32 68.9688 179.852 69.8906C180.383 70.7969 180.758 72.25 180.977 74.25C181.195 76.2344 181.305 79.1953 181.305 83.1328C181.305 87.0547 181.43 89.3438 181.68 90H176.852C176.602 89.5 176.477 84.8672 176.477 76.1016C176.477 73.1484 176.188 71.4375 175.609 70.9688C175.031 70.4844 174.156 70.2422 172.984 70.2422L170.102 70.0781V90H165.25V48.75ZM176.477 58.8516C176.477 55.6797 176.188 53.8438 175.609 53.3438C175.047 52.8438 174.227 52.5938 173.148 52.5938H170.102V66.5156H173.195C174.133 66.5156 174.82 66.3359 175.258 65.9766C175.695 65.6172 176.008 64.9297 176.195 63.9141C176.383 62.8984 176.477 61.3047 176.477 59.1328V58.8516ZM198.578 48.75H203.336L196.68 72.6797V90H191.828V72.6797L184.656 48.75H189.367L194.242 65.625H194.336L198.578 48.75Z" fill="#46464B"/>
</svg>
