<?xml version="1.0" encoding="utf-8"?>
<!-- Generator: Adobe Illustrator 24.0.1, SVG Export Plug-In . SVG Version: 6.00 Build 0)  -->
<svg version="1.1" id="Layer_15" xmlns="http://www.w3.org/2000/svg" xmlns:xlink="http://www.w3.org/1999/xlink" x="0px" y="0px"
	 viewBox="0 0 755 1080" style="enable-background:new 0 0 755 1080;" xml:space="preserve">
<style type="text/css">
	.st0{fill:url(#SVGID_1_);}
	.st1{opacity:0.49;}
	.st2{opacity:0.17;fill:none;stroke:url(#SVGID_2_);stroke-width:1.417;stroke-miterlimit:10;}
	.st3{opacity:0.17;fill:none;stroke:url(#SVGID_3_);stroke-width:1.417;stroke-miterlimit:10;}
	.st4{opacity:0.17;fill:none;stroke:url(#SVGID_4_);stroke-width:1.417;stroke-miterlimit:10;}
	.st5{opacity:0.17;fill:none;stroke:url(#SVGID_5_);stroke-width:1.417;stroke-miterlimit:10;}
	.st6{opacity:0.17;fill:none;stroke:url(#SVGID_6_);stroke-width:1.417;stroke-miterlimit:10;}
	.st7{opacity:0.17;fill:none;stroke:url(#SVGID_7_);stroke-width:1.417;stroke-miterlimit:10;}
	.st8{opacity:0.17;fill:none;stroke:url(#SVGID_8_);stroke-width:1.417;stroke-miterlimit:10;}
	.st9{opacity:0.17;fill:none;stroke:url(#SVGID_9_);stroke-width:1.417;stroke-miterlimit:10;}
	.st10{opacity:0.17;fill:none;stroke:url(#SVGID_10_);stroke-width:1.417;stroke-miterlimit:10;}
	.st11{opacity:0.17;fill:none;stroke:url(#SVGID_11_);stroke-width:1.417;stroke-miterlimit:10;}
	.st12{opacity:0.17;fill:none;stroke:url(#SVGID_12_);stroke-width:1.417;stroke-miterlimit:10;}
	.st13{opacity:0.17;fill:none;stroke:url(#SVGID_13_);stroke-width:1.417;stroke-miterlimit:10;}
	.st14{opacity:0.17;fill:none;stroke:url(#SVGID_14_);stroke-width:1.417;stroke-miterlimit:10;}
	.st15{opacity:0.17;fill:none;stroke:url(#SVGID_15_);stroke-width:1.417;stroke-miterlimit:10;}
	.st16{opacity:0.17;fill:none;stroke:url(#SVGID_16_);stroke-width:1.417;stroke-miterlimit:10;}
	.st17{opacity:0.17;fill:none;stroke:url(#SVGID_17_);stroke-width:1.417;stroke-miterlimit:10;}
	.st18{opacity:0.17;fill:none;stroke:url(#SVGID_18_);stroke-width:1.417;stroke-miterlimit:10;}
	.st19{opacity:0.17;fill:none;stroke:url(#SVGID_19_);stroke-width:1.417;stroke-miterlimit:10;}
	.st20{opacity:0.17;fill:none;stroke:url(#SVGID_20_);stroke-width:1.417;stroke-miterlimit:10;}
	.st21{opacity:0.17;fill:none;stroke:url(#SVGID_21_);stroke-width:1.417;stroke-miterlimit:10;}
	.st22{opacity:0.17;fill:none;stroke:url(#SVGID_22_);stroke-width:1.417;stroke-miterlimit:10;}
	.st23{opacity:0.17;fill:none;stroke:url(#SVGID_23_);stroke-width:1.417;stroke-miterlimit:10;}
	.st24{opacity:0.17;fill:none;stroke:url(#SVGID_24_);stroke-width:1.417;stroke-miterlimit:10;}
	.st25{opacity:0.17;fill:none;stroke:url(#SVGID_25_);stroke-width:1.417;stroke-miterlimit:10;}
	.st26{opacity:0.17;fill:none;stroke:url(#SVGID_26_);stroke-width:1.417;stroke-miterlimit:10;}
	.st27{opacity:0.17;fill:none;stroke:url(#SVGID_27_);stroke-width:1.417;stroke-miterlimit:10;}
	.st28{opacity:0.17;fill:none;stroke:url(#SVGID_28_);stroke-width:1.417;stroke-miterlimit:10;}
	.st29{opacity:0.17;fill:none;stroke:url(#SVGID_29_);stroke-width:1.417;stroke-miterlimit:10;}
	.st30{opacity:0.17;fill:none;stroke:url(#SVGID_30_);stroke-width:1.417;stroke-miterlimit:10;}
	.st31{opacity:0.17;fill:none;stroke:url(#SVGID_31_);stroke-width:1.417;stroke-miterlimit:10;}
	.st32{opacity:0.17;fill:none;stroke:url(#SVGID_32_);stroke-width:1.417;stroke-miterlimit:10;}
	.st33{opacity:0.17;fill:none;stroke:url(#SVGID_33_);stroke-width:1.417;stroke-miterlimit:10;}
	.st34{opacity:0.17;fill:none;stroke:url(#SVGID_34_);stroke-width:1.417;stroke-miterlimit:10;}
	.st35{opacity:0.17;fill:none;stroke:url(#SVGID_35_);stroke-width:1.417;stroke-miterlimit:10;}
	.st36{opacity:0.17;fill:none;stroke:url(#SVGID_36_);stroke-width:1.417;stroke-miterlimit:10;}
	.st37{opacity:0.17;fill:none;stroke:url(#SVGID_37_);stroke-width:1.417;stroke-miterlimit:10;}
	.st38{opacity:0.17;fill:none;stroke:url(#SVGID_38_);stroke-width:1.417;stroke-miterlimit:10;}
	.st39{opacity:0.17;fill:none;stroke:url(#SVGID_39_);stroke-width:1.417;stroke-miterlimit:10;}
	.st40{opacity:0.17;fill:none;stroke:url(#SVGID_40_);stroke-width:1.417;stroke-miterlimit:10;}
	.st41{opacity:0.17;fill:none;stroke:url(#SVGID_41_);stroke-width:1.417;stroke-miterlimit:10;}
	.st42{opacity:0.17;fill:none;stroke:url(#SVGID_42_);stroke-width:1.417;stroke-miterlimit:10;}
	.st43{opacity:0.17;fill:none;stroke:url(#SVGID_43_);stroke-width:1.417;stroke-miterlimit:10;}
	.st44{opacity:0.17;fill:none;stroke:url(#SVGID_44_);stroke-width:1.417;stroke-miterlimit:10;}
	.st45{opacity:0.17;fill:none;stroke:url(#SVGID_45_);stroke-width:1.417;stroke-miterlimit:10;}
	.st46{opacity:0.17;fill:none;stroke:url(#SVGID_46_);stroke-width:1.417;stroke-miterlimit:10;}
	.st47{opacity:0.17;fill:none;stroke:url(#SVGID_47_);stroke-width:1.417;stroke-miterlimit:10;}
	.st48{opacity:0.17;fill:none;stroke:url(#SVGID_48_);stroke-width:1.417;stroke-miterlimit:10;}
	.st49{opacity:0.17;fill:none;stroke:url(#SVGID_49_);stroke-width:1.417;stroke-miterlimit:10;}
	.st50{opacity:0.17;fill:none;stroke:url(#SVGID_50_);stroke-width:1.417;stroke-miterlimit:10;}
	.st51{opacity:0.17;fill:none;stroke:url(#SVGID_51_);stroke-width:1.417;stroke-miterlimit:10;}
	.st52{opacity:0.17;fill:none;stroke:url(#SVGID_52_);stroke-width:1.417;stroke-miterlimit:10;}
	.st53{opacity:0.17;fill:none;stroke:url(#SVGID_53_);stroke-width:1.417;stroke-miterlimit:10;}
	.st54{opacity:0.17;fill:none;stroke:url(#SVGID_54_);stroke-width:1.417;stroke-miterlimit:10;}
	.st55{opacity:0.17;fill:none;stroke:url(#SVGID_55_);stroke-width:1.417;stroke-miterlimit:10;}
	.st56{opacity:0.17;fill:none;stroke:url(#SVGID_56_);stroke-width:1.417;stroke-miterlimit:10;}
	.st57{opacity:0.17;fill:none;stroke:url(#SVGID_57_);stroke-width:1.417;stroke-miterlimit:10;}
	.st58{opacity:0.17;fill:none;stroke:url(#SVGID_58_);stroke-width:1.417;stroke-miterlimit:10;}
	.st59{opacity:0.17;fill:none;stroke:url(#SVGID_59_);stroke-width:1.417;stroke-miterlimit:10;}
	.st60{opacity:0.17;fill:none;stroke:url(#SVGID_60_);stroke-width:1.417;stroke-miterlimit:10;}
	.st61{opacity:0.17;fill:none;stroke:url(#SVGID_61_);stroke-width:1.417;stroke-miterlimit:10;}
	.st62{opacity:0.17;fill:none;stroke:url(#SVGID_62_);stroke-width:1.417;stroke-miterlimit:10;}
	.st63{opacity:0.17;fill:none;stroke:url(#SVGID_63_);stroke-width:1.417;stroke-miterlimit:10;}
	.st64{opacity:0.17;fill:none;stroke:url(#SVGID_64_);stroke-width:1.417;stroke-miterlimit:10;}
	.st65{opacity:0.17;fill:none;stroke:url(#SVGID_65_);stroke-width:1.417;stroke-miterlimit:10;}
	.st66{opacity:0.17;fill:none;stroke:url(#SVGID_66_);stroke-width:1.417;stroke-miterlimit:10;}
	.st67{opacity:0.17;fill:none;stroke:url(#SVGID_67_);stroke-width:1.417;stroke-miterlimit:10;}
	.st68{opacity:0.17;fill:none;stroke:url(#SVGID_68_);stroke-width:1.417;stroke-miterlimit:10;}
	.st69{opacity:0.17;fill:none;stroke:url(#SVGID_69_);stroke-width:1.417;stroke-miterlimit:10;}
	.st70{opacity:0.17;fill:none;stroke:url(#SVGID_70_);stroke-width:1.417;stroke-miterlimit:10;}
	.st71{opacity:0.17;fill:none;stroke:url(#SVGID_71_);stroke-width:1.417;stroke-miterlimit:10;}
	.st72{opacity:0.17;fill:none;stroke:url(#SVGID_72_);stroke-width:1.417;stroke-miterlimit:10;}
	.st73{opacity:0.17;fill:none;stroke:url(#SVGID_73_);stroke-width:1.417;stroke-miterlimit:10;}
	.st74{opacity:0.17;fill:none;stroke:url(#SVGID_74_);stroke-width:1.417;stroke-miterlimit:10;}
	.st75{opacity:0.17;fill:none;stroke:url(#SVGID_75_);stroke-width:1.417;stroke-miterlimit:10;}
	.st76{fill:#FFFFFF;}
	.st77{opacity:0.6;}
	.st78{filter:url(#Adobe_OpacityMaskFilter);}
	.st79{clip-path:url(#SVGID_77_);fill:url(#SVGID_79_);}
	.st80{clip-path:url(#SVGID_77_);mask:url(#SVGID_78_);fill:#FFFFFF;}
</style>
<linearGradient id="SVGID_1_" gradientUnits="userSpaceOnUse" x1="-65.9071" y1="1163.3353" x2="774.4026" y2="-17.7452">
	<stop  offset="0.2111" style="stop-color:#0A1B60"/>
	<stop  offset="0.4116" style="stop-color:#0D206B"/>
	<stop  offset="0.7611" style="stop-color:#152F88"/>
	<stop  offset="1" style="stop-color:#1C3B9F"/>
</linearGradient>
<rect x="0" class="st0" width="754.88" height="1080.39"/>
<g class="st1">
	<linearGradient id="SVGID_2_" gradientUnits="userSpaceOnUse" x1="144.7024" y1="-124.1754" x2="259.5602" y2="-124.1754">
		<stop  offset="0" style="stop-color:#7684BE;stop-opacity:0"/>
		<stop  offset="1" style="stop-color:#7684BE"/>
	</linearGradient>
	<path class="st2" d="M258.3-205.45L160.14-43.43c-17.67-22.36-20.1-55.27-3.72-82.29l48.28-79.69L258.3-205.45z"/>
	<linearGradient id="SVGID_3_" gradientUnits="userSpaceOnUse" x1="165.3362" y1="-85.1103" x2="332.7137" y2="-85.1103">
		<stop  offset="0" style="stop-color:#7684BE;stop-opacity:0"/>
		<stop  offset="1" style="stop-color:#7684BE"/>
	</linearGradient>
	<path class="st3" d="M331.48-149.37l-25.82,42.61l-26.65-0.48c5.57,18.09,3.68,38.39-6.9,55.85
		c-19.67,32.47-61.94,42.84-94.41,23.17c-4.2-2.54-8.03-5.47-11.47-8.7l24.83-40.99c1.72,4.72,5.01,8.91,9.64,11.72
		c10.82,6.55,24.91,3.1,31.47-7.72c6.56-10.82,3.1-24.91-7.73-31.47c-2.54-1.54-5.25-2.52-8.01-2.99l0,0
		c-2.28-0.39-4.58-0.42-6.84-0.12l26.33-43.47L331.48-149.37z"/>
	<linearGradient id="SVGID_4_" gradientUnits="userSpaceOnUse" x1="313.735" y1="-186.9355" x2="428.6765" y2="-186.9355">
		<stop  offset="0" style="stop-color:#7684BE;stop-opacity:0"/>
		<stop  offset="1" style="stop-color:#7684BE"/>
	</linearGradient>
	<path class="st4" d="M314.99-105.57l98.26-162.19c17.67,22.37,20.08,55.3,3.68,82.35l-48.33,79.77L314.99-105.57z"/>
	<linearGradient id="SVGID_5_" gradientUnits="userSpaceOnUse" x1="240.6806" y1="-226.0832" x2="408.0577" y2="-226.0832">
		<stop  offset="0" style="stop-color:#7684BE;stop-opacity:0"/>
		<stop  offset="1" style="stop-color:#7684BE"/>
	</linearGradient>
	<path class="st5" d="M241.92-161.83l25.81-42.61l26.65,0.48c-5.57-18.09-3.68-38.39,6.9-55.85c19.67-32.47,61.94-42.84,94.41-23.17
		c4.2,2.54,8.03,5.47,11.47,8.7l-24.83,40.99c-1.72-4.72-5.01-8.91-9.64-11.72c-10.82-6.56-24.91-3.1-31.47,7.72
		c-6.56,10.82-3.1,24.91,7.72,31.47c2.54,1.54,5.25,2.52,8.01,2.99l0,0c2.28,0.39,4.58,0.42,6.84,0.12l-26.33,43.47L241.92-161.83z"
		/>
	<linearGradient id="SVGID_6_" gradientUnits="userSpaceOnUse" x1="245.2886" y1="-8.3143" x2="360.1464" y2="-8.3143">
		<stop  offset="0" style="stop-color:#7684BE;stop-opacity:0"/>
		<stop  offset="1" style="stop-color:#7684BE"/>
	</linearGradient>
	<path class="st6" d="M358.89-89.59L260.73,72.43c-17.67-22.36-20.1-55.27-3.72-82.29l48.28-79.69L358.89-89.59z"/>
	<linearGradient id="SVGID_7_" gradientUnits="userSpaceOnUse" x1="265.9227" y1="30.7513" x2="433.3" y2="30.7513">
		<stop  offset="0" style="stop-color:#7684BE;stop-opacity:0"/>
		<stop  offset="1" style="stop-color:#7684BE"/>
	</linearGradient>
	<path class="st7" d="M432.06-33.5L406.25,9.11L379.6,8.62c5.57,18.09,3.68,38.39-6.9,55.85c-19.67,32.47-61.94,42.84-94.41,23.17
		c-4.2-2.54-8.03-5.47-11.47-8.7l24.83-40.99c1.72,4.72,5.01,8.91,9.64,11.72c10.82,6.55,24.91,3.1,31.47-7.72
		c6.56-10.82,3.1-24.91-7.72-31.47c-2.54-1.54-5.25-2.52-8.01-3l0,0c-2.28-0.39-4.58-0.42-6.84-0.12l26.33-43.47L432.06-33.5z"/>
	<linearGradient id="SVGID_8_" gradientUnits="userSpaceOnUse" x1="414.3213" y1="-71.0745" x2="529.2628" y2="-71.0745">
		<stop  offset="0" style="stop-color:#7684BE;stop-opacity:0"/>
		<stop  offset="1" style="stop-color:#7684BE"/>
	</linearGradient>
	<path class="st8" d="M415.58,10.29l98.26-162.19c17.67,22.37,20.08,55.3,3.68,82.35l-48.33,79.77L415.58,10.29z"/>
	<linearGradient id="SVGID_9_" gradientUnits="userSpaceOnUse" x1="341.2668" y1="-110.2221" x2="508.6451" y2="-110.2221">
		<stop  offset="0" style="stop-color:#7684BE;stop-opacity:0"/>
		<stop  offset="1" style="stop-color:#7684BE"/>
	</linearGradient>
	<path class="st9" d="M342.5-45.97l25.81-42.61l26.65,0.48c-5.57-18.09-3.68-38.39,6.9-55.85c19.67-32.47,61.94-42.84,94.41-23.17
		c4.2,2.54,8.03,5.47,11.47,8.7l-24.83,40.99c-1.72-4.72-5.01-8.91-9.64-11.72c-10.82-6.56-24.91-3.1-31.47,7.72
		c-6.56,10.82-3.1,24.91,7.72,31.47c2.54,1.54,5.25,2.52,8.01,3l0,0c2.28,0.39,4.58,0.42,6.84,0.12l-26.33,43.47L342.5-45.97z"/>
	<linearGradient id="SVGID_10_" gradientUnits="userSpaceOnUse" x1="621.4955" y1="159.8481" x2="736.3532" y2="159.8481">
		<stop  offset="0" style="stop-color:#7684BE;stop-opacity:0"/>
		<stop  offset="1" style="stop-color:#7684BE"/>
	</linearGradient>
	<path class="st10" d="M622.75,241.13L720.91,79.1c17.67,22.36,20.1,55.27,3.72,82.29l-48.28,79.69L622.75,241.13z"/>
	<linearGradient id="SVGID_11_" gradientUnits="userSpaceOnUse" x1="548.3417" y1="120.7832" x2="715.7189" y2="120.7832">
		<stop  offset="0" style="stop-color:#7684BE;stop-opacity:0"/>
		<stop  offset="1" style="stop-color:#7684BE"/>
	</linearGradient>
	<path class="st11" d="M549.58,185.04l25.81-42.61l26.65,0.48c-5.57-18.09-3.68-38.39,6.9-55.85
		c19.67-32.47,61.94-42.84,94.41-23.17c4.2,2.54,8.03,5.47,11.47,8.7l-24.83,40.99c-1.72-4.72-5.01-8.91-9.64-11.72
		c-10.82-6.55-24.91-3.1-31.47,7.72c-6.56,10.82-3.1,24.91,7.73,31.47c2.54,1.54,5.25,2.52,8.01,2.99l0,0
		c2.28,0.39,4.58,0.42,6.84,0.12l-26.33,43.47L549.58,185.04z"/>
	<linearGradient id="SVGID_12_" gradientUnits="userSpaceOnUse" x1="452.379" y1="222.6083" x2="567.3207" y2="222.6083">
		<stop  offset="0" style="stop-color:#7684BE;stop-opacity:0"/>
		<stop  offset="1" style="stop-color:#7684BE"/>
	</linearGradient>
	<path class="st12" d="M566.06,141.25L467.8,303.44c-17.67-22.37-20.08-55.3-3.68-82.35l48.33-79.77L566.06,141.25z"/>
	<linearGradient id="SVGID_13_" gradientUnits="userSpaceOnUse" x1="472.9978" y1="261.7563" x2="640.3752" y2="261.7563">
		<stop  offset="0" style="stop-color:#7684BE;stop-opacity:0"/>
		<stop  offset="1" style="stop-color:#7684BE"/>
	</linearGradient>
	<path class="st13" d="M639.14,197.5l-25.82,42.61l-26.65-0.48c5.57,18.09,3.68,38.39-6.9,55.85
		c-19.67,32.47-61.94,42.84-94.41,23.17c-4.2-2.54-8.03-5.47-11.47-8.7l24.83-40.99c1.72,4.72,5.01,8.91,9.64,11.72
		c10.82,6.56,24.91,3.1,31.47-7.72c6.56-10.82,3.1-24.91-7.72-31.47c-2.54-1.54-5.25-2.52-8.01-2.99l0,0
		c-2.28-0.39-4.58-0.42-6.84-0.12l26.33-43.47L639.14,197.5z"/>
	<linearGradient id="SVGID_14_" gradientUnits="userSpaceOnUse" x1="520.9095" y1="43.9868" x2="635.7672" y2="43.9868">
		<stop  offset="0" style="stop-color:#7684BE;stop-opacity:0"/>
		<stop  offset="1" style="stop-color:#7684BE"/>
	</linearGradient>
	<path class="st14" d="M522.17,125.27l98.16-162.03c17.67,22.36,20.1,55.27,3.72,82.29l-48.28,79.69L522.17,125.27z"/>
	<linearGradient id="SVGID_15_" gradientUnits="userSpaceOnUse" x1="447.7559" y1="4.9213" x2="615.1332" y2="4.9213">
		<stop  offset="0" style="stop-color:#7684BE;stop-opacity:0"/>
		<stop  offset="1" style="stop-color:#7684BE"/>
	</linearGradient>
	<path class="st15" d="M448.99,69.18l25.81-42.61l26.65,0.48c-5.57-18.09-3.68-38.39,6.9-55.85c19.67-32.47,61.94-42.84,94.41-23.17
		c4.2,2.54,8.03,5.47,11.47,8.7L589.4-2.29c-1.72-4.72-5.01-8.91-9.64-11.72c-10.82-6.55-24.91-3.1-31.47,7.72
		c-6.56,10.82-3.1,24.91,7.72,31.47c2.54,1.54,5.25,2.52,8.01,3l0,0c2.28,0.39,4.58,0.42,6.84,0.12l-26.33,43.47L448.99,69.18z"/>
	<linearGradient id="SVGID_16_" gradientUnits="userSpaceOnUse" x1="351.7925" y1="106.7473" x2="466.7343" y2="106.7473">
		<stop  offset="0" style="stop-color:#7684BE;stop-opacity:0"/>
		<stop  offset="1" style="stop-color:#7684BE"/>
	</linearGradient>
	<path class="st16" d="M465.48,25.39l-98.26,162.19c-17.67-22.37-20.08-55.3-3.69-82.36l48.33-79.77L465.48,25.39z"/>
	<linearGradient id="SVGID_17_" gradientUnits="userSpaceOnUse" x1="372.4102" y1="145.8948" x2="539.7888" y2="145.8948">
		<stop  offset="0" style="stop-color:#7684BE;stop-opacity:0"/>
		<stop  offset="1" style="stop-color:#7684BE"/>
	</linearGradient>
	<path class="st17" d="M538.55,81.64l-25.82,42.61l-26.65-0.48c5.57,18.09,3.68,38.39-6.9,55.85
		c-19.67,32.47-61.94,42.84-94.41,23.17c-4.2-2.54-8.03-5.47-11.47-8.7l24.83-40.99c1.72,4.72,5.01,8.91,9.64,11.72
		c10.82,6.56,24.91,3.1,31.47-7.72c6.56-10.82,3.1-24.91-7.72-31.47c-2.54-1.54-5.25-2.52-8.01-3l0,0
		c-2.28-0.39-4.58-0.42-6.84-0.12l26.33-43.47L538.55,81.64z"/>
	<linearGradient id="SVGID_18_" gradientUnits="userSpaceOnUse" x1="222.0706" y1="-300.861" x2="336.9282" y2="-300.861">
		<stop  offset="0" style="stop-color:#7684BE;stop-opacity:0"/>
		<stop  offset="1" style="stop-color:#7684BE"/>
	</linearGradient>
	<path class="st18" d="M223.33-219.58l98.16-162.03c17.67,22.36,20.1,55.27,3.72,82.29l-48.28,79.7L223.33-219.58z"/>
	<linearGradient id="SVGID_19_" gradientUnits="userSpaceOnUse" x1="148.9171" y1="-339.9259" x2="316.2944" y2="-339.9259">
		<stop  offset="0" style="stop-color:#7684BE;stop-opacity:0"/>
		<stop  offset="1" style="stop-color:#7684BE"/>
	</linearGradient>
	<path class="st19" d="M150.15-275.67l25.81-42.61l26.65,0.48c-5.57-18.09-3.68-38.39,6.9-55.85
		c19.67-32.47,61.94-42.84,94.41-23.17c4.2,2.54,8.03,5.47,11.47,8.7l-24.83,40.99c-1.72-4.72-5.01-8.91-9.64-11.72
		c-10.82-6.56-24.91-3.1-31.47,7.72c-6.56,10.82-3.1,24.91,7.73,31.47c2.54,1.54,5.25,2.52,8.01,2.99l0,0
		c2.28,0.39,4.58,0.42,6.84,0.12l-26.33,43.47L150.15-275.67z"/>
	<linearGradient id="SVGID_20_" gradientUnits="userSpaceOnUse" x1="52.9538" y1="-238.0999" x2="167.8966" y2="-238.0999">
		<stop  offset="0" style="stop-color:#7684BE;stop-opacity:0"/>
		<stop  offset="1" style="stop-color:#7684BE"/>
	</linearGradient>
	<path class="st20" d="M166.64-319.46L68.38-157.27c-17.67-22.37-20.08-55.3-3.68-82.35l48.33-79.77L166.64-319.46z"/>
	<linearGradient id="SVGID_21_" gradientUnits="userSpaceOnUse" x1="73.5726" y1="-198.9526" x2="240.95" y2="-198.9526">
		<stop  offset="0" style="stop-color:#7684BE;stop-opacity:0"/>
		<stop  offset="1" style="stop-color:#7684BE"/>
	</linearGradient>
	<path class="st21" d="M239.71-263.21L213.9-220.6l-26.65-0.48c5.57,18.09,3.68,38.39-6.9,55.85
		c-19.67,32.47-61.94,42.84-94.41,23.17c-4.2-2.54-8.03-5.47-11.47-8.7l24.83-40.99c1.72,4.72,5.01,8.91,9.64,11.72
		c10.82,6.55,24.91,3.1,31.47-7.72c6.56-10.82,3.1-24.91-7.73-31.47c-2.54-1.54-5.25-2.52-8.01-2.99l0,0
		c-2.28-0.39-4.58-0.42-6.84-0.12l26.33-43.47L239.71-263.21z"/>
	<linearGradient id="SVGID_22_" gradientUnits="userSpaceOnUse" x1="121.4844" y1="-416.7222" x2="236.3421" y2="-416.7222">
		<stop  offset="0" style="stop-color:#7684BE;stop-opacity:0"/>
		<stop  offset="1" style="stop-color:#7684BE"/>
	</linearGradient>
	<path class="st22" d="M122.74-335.44l98.16-162.03c17.67,22.36,20.1,55.27,3.72,82.29l-48.28,79.69L122.74-335.44z"/>
	<linearGradient id="SVGID_23_" gradientUnits="userSpaceOnUse" x1="48.3308" y1="-455.787" x2="215.7081" y2="-455.787">
		<stop  offset="0" style="stop-color:#7684BE;stop-opacity:0"/>
		<stop  offset="1" style="stop-color:#7684BE"/>
	</linearGradient>
	<path class="st23" d="M49.57-391.53l25.81-42.61l26.65,0.48c-5.57-18.09-3.68-38.39,6.9-55.85c19.67-32.47,61.94-42.84,94.41-23.17
		c4.2,2.54,8.03,5.47,11.47,8.7L189.97-463c-1.72-4.72-5.01-8.91-9.64-11.72c-10.82-6.55-24.91-3.1-31.47,7.72
		c-6.56,10.82-3.1,24.91,7.73,31.47c2.54,1.54,5.25,2.52,8.01,2.99l0,0c2.28,0.39,4.58,0.42,6.84,0.12l-26.33,43.47L49.57-391.53z"
		/>
	<linearGradient id="SVGID_24_" gradientUnits="userSpaceOnUse" x1="-47.6324" y1="-353.961" x2="67.3103" y2="-353.961">
		<stop  offset="0" style="stop-color:#7684BE;stop-opacity:0"/>
		<stop  offset="1" style="stop-color:#7684BE"/>
	</linearGradient>
	<path class="st24" d="M66.05-435.32l-98.26,162.19c-17.67-22.37-20.08-55.3-3.68-82.35l48.33-79.77L66.05-435.32z"/>
	<linearGradient id="SVGID_25_" gradientUnits="userSpaceOnUse" x1="-27.0137" y1="-314.8135" x2="140.3637" y2="-314.8135">
		<stop  offset="0" style="stop-color:#7684BE;stop-opacity:0"/>
		<stop  offset="1" style="stop-color:#7684BE"/>
	</linearGradient>
	<path class="st25" d="M139.13-379.07l-25.82,42.61l-26.65-0.48c5.57,18.09,3.68,38.39-6.9,55.85
		c-19.67,32.47-61.94,42.84-94.41,23.17c-4.2-2.54-8.03-5.47-11.47-8.7l24.83-40.99c1.72,4.72,5.01,8.91,9.64,11.72
		c10.82,6.56,24.91,3.1,31.47-7.72c6.56-10.82,3.1-24.91-7.73-31.47c-2.54-1.54-5.25-2.52-8.01-2.99l0,0
		c-2.28-0.39-4.58-0.42-6.84-0.12l26.33-43.47L139.13-379.07z"/>
	<linearGradient id="SVGID_26_" gradientUnits="userSpaceOnUse" x1="-110.0423" y1="117.1554" x2="4.8155" y2="117.1554">
		<stop  offset="0" style="stop-color:#7684BE;stop-opacity:0"/>
		<stop  offset="1" style="stop-color:#7684BE"/>
	</linearGradient>
	<path class="st26" d="M3.56,35.88L-94.6,197.9c-17.67-22.36-20.1-55.27-3.72-82.29l48.28-79.7L3.56,35.88z"/>
	<linearGradient id="SVGID_27_" gradientUnits="userSpaceOnUse" x1="-89.4082" y1="156.2201" x2="77.9693" y2="156.2201">
		<stop  offset="0" style="stop-color:#7684BE;stop-opacity:0"/>
		<stop  offset="1" style="stop-color:#7684BE"/>
	</linearGradient>
	<path class="st27" d="M76.73,91.97l-25.82,42.61l-26.65-0.48c5.57,18.09,3.68,38.39-6.9,55.85
		c-19.67,32.47-61.94,42.84-94.41,23.17c-4.2-2.54-8.03-5.47-11.47-8.7l24.83-40.99c1.72,4.72,5.01,8.91,9.64,11.72
		c10.82,6.56,24.91,3.1,31.47-7.72c6.56-10.82,3.1-24.91-7.72-31.47c-2.54-1.54-5.25-2.52-8.01-2.99l0,0
		c-2.28-0.39-4.58-0.42-6.84-0.12l26.33-43.47L76.73,91.97z"/>
	<linearGradient id="SVGID_28_" gradientUnits="userSpaceOnUse" x1="58.9895" y1="54.3943" x2="173.9317" y2="54.3943">
		<stop  offset="0" style="stop-color:#7684BE;stop-opacity:0"/>
		<stop  offset="1" style="stop-color:#7684BE"/>
	</linearGradient>
	<path class="st28" d="M60.25,135.76l98.26-162.19c17.67,22.37,20.08,55.3,3.68,82.35l-48.33,79.77L60.25,135.76z"/>
	<linearGradient id="SVGID_29_" gradientUnits="userSpaceOnUse" x1="-14.064" y1="15.2469" x2="153.3133" y2="15.2469">
		<stop  offset="0" style="stop-color:#7684BE;stop-opacity:0"/>
		<stop  offset="1" style="stop-color:#7684BE"/>
	</linearGradient>
	<path class="st29" d="M-12.83,79.5l25.81-42.61l26.65,0.48c-5.57-18.09-3.68-38.39,6.9-55.85c19.67-32.47,61.94-42.84,94.41-23.17
		c4.2,2.54,8.03,5.47,11.47,8.7L127.58,8.03c-1.73-4.72-5.01-8.91-9.64-11.72c-10.82-6.55-24.91-3.1-31.47,7.72
		c-6.56,10.82-3.1,24.91,7.73,31.47c2.54,1.54,5.25,2.52,8.01,2.99l0,0c2.28,0.39,4.58,0.42,6.84,0.12L82.71,82.09L-12.83,79.5z"/>
	<linearGradient id="SVGID_30_" gradientUnits="userSpaceOnUse" x1="-9.456" y1="233.0165" x2="105.4018" y2="233.0165">
		<stop  offset="0" style="stop-color:#7684BE;stop-opacity:0"/>
		<stop  offset="1" style="stop-color:#7684BE"/>
	</linearGradient>
	<path class="st30" d="M104.14,151.74L5.98,313.76c-17.67-22.36-20.1-55.27-3.72-82.29l48.28-79.7L104.14,151.74z"/>
	<linearGradient id="SVGID_31_" gradientUnits="userSpaceOnUse" x1="11.1779" y1="272.0814" x2="178.5553" y2="272.0814">
		<stop  offset="0" style="stop-color:#7684BE;stop-opacity:0"/>
		<stop  offset="1" style="stop-color:#7684BE"/>
	</linearGradient>
	<path class="st31" d="M177.32,207.83l-25.82,42.61l-26.65-0.48c5.57,18.09,3.68,38.39-6.9,55.85
		c-19.67,32.47-61.94,42.84-94.41,23.17c-4.2-2.54-8.03-5.47-11.47-8.7l24.83-40.99c1.72,4.72,5.01,8.91,9.64,11.72
		c10.82,6.56,24.91,3.1,31.47-7.72c6.56-10.82,3.1-24.91-7.73-31.47c-2.54-1.54-5.25-2.52-8.01-2.99l0,0
		c-2.28-0.39-4.58-0.42-6.84-0.12l26.33-43.47L177.32,207.83z"/>
	<linearGradient id="SVGID_32_" gradientUnits="userSpaceOnUse" x1="159.5757" y1="170.2553" x2="274.5183" y2="170.2553">
		<stop  offset="0" style="stop-color:#7684BE;stop-opacity:0"/>
		<stop  offset="1" style="stop-color:#7684BE"/>
	</linearGradient>
	<path class="st32" d="M160.83,251.62l98.26-162.19c17.67,22.37,20.08,55.3,3.68,82.35l-48.33,79.77L160.83,251.62z"/>
	<linearGradient id="SVGID_33_" gradientUnits="userSpaceOnUse" x1="86.5225" y1="131.1082" x2="253.8998" y2="131.1082">
		<stop  offset="0" style="stop-color:#7684BE;stop-opacity:0"/>
		<stop  offset="1" style="stop-color:#7684BE"/>
	</linearGradient>
	<path class="st33" d="M87.76,195.36l25.81-42.61l26.65,0.48c-5.57-18.09-3.68-38.39,6.9-55.85c19.67-32.47,61.94-42.84,94.41-23.17
		c4.2,2.54,8.03,5.47,11.47,8.7l-24.83,40.99c-1.72-4.72-5.01-8.91-9.64-11.72c-10.82-6.55-24.91-3.1-31.47,7.72
		c-6.56,10.82-3.1,24.91,7.73,31.47c2.54,1.54,5.25,2.52,8.01,2.99l0,0c2.28,0.39,4.58,0.42,6.84,0.12l-26.33,43.47L87.76,195.36z"
		/>
	<linearGradient id="SVGID_34_" gradientUnits="userSpaceOnUse" x1="366.7511" y1="401.178" x2="481.6083" y2="401.178">
		<stop  offset="0" style="stop-color:#7684BE;stop-opacity:0"/>
		<stop  offset="1" style="stop-color:#7684BE"/>
	</linearGradient>
	<path class="st34" d="M368.01,482.46l98.16-162.03c17.67,22.36,20.1,55.27,3.72,82.3l-48.28,79.69L368.01,482.46z"/>
	<linearGradient id="SVGID_35_" gradientUnits="userSpaceOnUse" x1="293.5964" y1="362.1127" x2="460.9748" y2="362.1127">
		<stop  offset="0" style="stop-color:#7684BE;stop-opacity:0"/>
		<stop  offset="1" style="stop-color:#7684BE"/>
	</linearGradient>
	<path class="st35" d="M294.83,426.37l25.81-42.61l26.65,0.48c-5.57-18.09-3.68-38.39,6.9-55.85
		c19.67-32.47,61.94-42.84,94.41-23.17c4.2,2.54,8.03,5.47,11.47,8.7l-24.83,40.99c-1.73-4.72-5.01-8.91-9.64-11.72
		c-10.82-6.56-24.91-3.1-31.47,7.72c-6.56,10.82-3.1,24.91,7.72,31.47c2.54,1.54,5.25,2.52,8.01,3l0,0
		c2.28,0.39,4.58,0.42,6.84,0.12l-26.33,43.47L294.83,426.37z"/>
	<linearGradient id="SVGID_36_" gradientUnits="userSpaceOnUse" x1="197.6343" y1="463.9382" x2="312.5763" y2="463.9382">
		<stop  offset="0" style="stop-color:#7684BE;stop-opacity:0"/>
		<stop  offset="1" style="stop-color:#7684BE"/>
	</linearGradient>
	<path class="st36" d="M311.32,382.58l-98.26,162.19c-17.66-22.37-20.08-55.3-3.68-82.35l48.33-79.77L311.32,382.58z"/>
	<linearGradient id="SVGID_37_" gradientUnits="userSpaceOnUse" x1="218.2525" y1="503.0865" x2="385.6298" y2="503.0865">
		<stop  offset="0" style="stop-color:#7684BE;stop-opacity:0"/>
		<stop  offset="1" style="stop-color:#7684BE"/>
	</linearGradient>
	<path class="st37" d="M384.39,438.83l-25.82,42.61l-26.65-0.48c5.57,18.09,3.68,38.39-6.9,55.85
		c-19.67,32.47-61.94,42.84-94.4,23.17c-4.2-2.54-8.03-5.47-11.47-8.7l24.83-40.99c1.73,4.72,5.01,8.91,9.64,11.72
		c10.82,6.55,24.91,3.1,31.47-7.72c6.56-10.82,3.1-24.91-7.72-31.47c-2.54-1.54-5.25-2.52-8.01-3l0,0
		c-2.28-0.39-4.58-0.42-6.84-0.12l26.33-43.47L384.39,438.83z"/>
	<linearGradient id="SVGID_38_" gradientUnits="userSpaceOnUse" x1="266.1648" y1="285.317" x2="381.0219" y2="285.317">
		<stop  offset="0" style="stop-color:#7684BE;stop-opacity:0"/>
		<stop  offset="1" style="stop-color:#7684BE"/>
	</linearGradient>
	<path class="st38" d="M267.42,366.6l98.16-162.03c17.67,22.36,20.1,55.27,3.72,82.29l-48.28,79.69L267.42,366.6z"/>
	<linearGradient id="SVGID_39_" gradientUnits="userSpaceOnUse" x1="193.0101" y1="246.2516" x2="360.3886" y2="246.2516">
		<stop  offset="0" style="stop-color:#7684BE;stop-opacity:0"/>
		<stop  offset="1" style="stop-color:#7684BE"/>
	</linearGradient>
	<path class="st39" d="M194.25,310.51l25.82-42.61l26.65,0.48c-5.57-18.09-3.68-38.39,6.9-55.85
		c19.67-32.47,61.94-42.84,94.41-23.17c4.2,2.54,8.03,5.47,11.47,8.7l-24.83,40.99c-1.73-4.72-5.01-8.91-9.64-11.72
		c-10.82-6.56-24.91-3.1-31.47,7.72c-6.56,10.82-3.1,24.91,7.72,31.47c2.54,1.54,5.25,2.52,8.01,2.99l0,0
		c2.28,0.39,4.58,0.42,6.84,0.12l-26.33,43.47L194.25,310.51z"/>
	<linearGradient id="SVGID_40_" gradientUnits="userSpaceOnUse" x1="97.0481" y1="348.0772" x2="211.99" y2="348.0772">
		<stop  offset="0" style="stop-color:#7684BE;stop-opacity:0"/>
		<stop  offset="1" style="stop-color:#7684BE"/>
	</linearGradient>
	<path class="st40" d="M210.73,266.72l-98.26,162.19c-17.66-22.37-20.08-55.3-3.68-82.35l48.33-79.77L210.73,266.72z"/>
	<linearGradient id="SVGID_41_" gradientUnits="userSpaceOnUse" x1="117.6662" y1="387.2251" x2="285.0435" y2="387.2251">
		<stop  offset="0" style="stop-color:#7684BE;stop-opacity:0"/>
		<stop  offset="1" style="stop-color:#7684BE"/>
	</linearGradient>
	<path class="st41" d="M283.81,322.97l-25.82,42.61l-26.65-0.48c5.57,18.09,3.68,38.39-6.9,55.85
		c-19.67,32.47-61.94,42.84-94.41,23.17c-4.2-2.54-8.03-5.47-11.47-8.7l24.83-40.99c1.73,4.72,5.01,8.91,9.64,11.72
		c10.82,6.55,24.91,3.1,31.47-7.72c6.56-10.82,3.1-24.91-7.73-31.47c-2.54-1.54-5.25-2.52-8.01-2.99l0,0
		c-2.28-0.39-4.58-0.42-6.84-0.12l26.33-43.47L283.81,322.97z"/>
	<linearGradient id="SVGID_42_" gradientUnits="userSpaceOnUse" x1="-239.8482" y1="-290.453" x2="-124.9066" y2="-290.453">
		<stop  offset="0" style="stop-color:#7684BE;stop-opacity:0"/>
		<stop  offset="1" style="stop-color:#7684BE"/>
	</linearGradient>
	<path class="st42" d="M-238.59-209.09l98.26-162.19c17.67,22.37,20.08,55.3,3.68,82.35l-48.33,79.77L-238.59-209.09z"/>
	<linearGradient id="SVGID_43_" gradientUnits="userSpaceOnUse" x1="-32.6741" y1="-59.5302" x2="82.1836" y2="-59.5302">
		<stop  offset="0" style="stop-color:#7684BE;stop-opacity:0"/>
		<stop  offset="1" style="stop-color:#7684BE"/>
	</linearGradient>
	<path class="st43" d="M-31.42,21.75l98.16-162.03c17.67,22.36,20.1,55.27,3.72,82.29L22.18,21.71L-31.42,21.75z"/>
	<linearGradient id="SVGID_44_" gradientUnits="userSpaceOnUse" x1="-105.8277" y1="-98.5959" x2="61.5497" y2="-98.5959">
		<stop  offset="0" style="stop-color:#7684BE;stop-opacity:0"/>
		<stop  offset="1" style="stop-color:#7684BE"/>
	</linearGradient>
	<path class="st44" d="M-104.59-34.34l25.82-42.61l26.65,0.48c-5.57-18.09-3.68-38.39,6.9-55.85
		c19.67-32.47,61.94-42.84,94.41-23.17c4.2,2.54,8.03,5.47,11.47,8.7l-24.83,40.99c-1.73-4.72-5.01-8.91-9.64-11.72
		c-10.82-6.55-24.91-3.1-31.47,7.72c-6.56,10.82-3.1,24.91,7.73,31.47c2.54,1.54,5.25,2.52,8.01,2.99l0,0
		c2.28,0.39,4.58,0.42,6.84,0.12L-9.05-31.75L-104.59-34.34z"/>
	<linearGradient id="SVGID_45_" gradientUnits="userSpaceOnUse" x1="-201.7904" y1="3.2298" x2="-86.8488" y2="3.2298">
		<stop  offset="0" style="stop-color:#7684BE;stop-opacity:0"/>
		<stop  offset="1" style="stop-color:#7684BE"/>
	</linearGradient>
	<path class="st45" d="M-88.11-78.13l-98.26,162.19c-17.67-22.37-20.08-55.3-3.68-82.35l48.33-79.77L-88.11-78.13z"/>
	<linearGradient id="SVGID_46_" gradientUnits="userSpaceOnUse" x1="-181.1727" y1="42.3777" x2="-13.7942" y2="42.3777">
		<stop  offset="0" style="stop-color:#7684BE;stop-opacity:0"/>
		<stop  offset="1" style="stop-color:#7684BE"/>
	</linearGradient>
	<path class="st46" d="M-15.03-21.88l-25.82,42.61l-26.65-0.48c5.57,18.09,3.68,38.39-6.9,55.85
		c-19.67,32.47-61.94,42.84-94.41,23.17c-4.2-2.54-8.03-5.47-11.47-8.7l24.83-40.99c1.73,4.72,5.01,8.91,9.64,11.72
		c10.82,6.56,24.91,3.1,31.47-7.72c6.56-10.82,3.1-24.91-7.72-31.47c-2.54-1.54-5.25-2.52-8.01-2.99l0,0
		c-2.28-0.39-4.58-0.42-6.84-0.12l26.33-43.47L-15.03-21.88z"/>
	<linearGradient id="SVGID_47_" gradientUnits="userSpaceOnUse" x1="-133.2602" y1="-175.3914" x2="-18.4025" y2="-175.3914">
		<stop  offset="0" style="stop-color:#7684BE;stop-opacity:0"/>
		<stop  offset="1" style="stop-color:#7684BE"/>
	</linearGradient>
	<path class="st47" d="M-132-94.11l98.16-162.03c17.67,22.36,20.1,55.27,3.72,82.29L-78.4-94.15L-132-94.11z"/>
	<linearGradient id="SVGID_48_" gradientUnits="userSpaceOnUse" x1="-206.4139" y1="-214.4572" x2="-39.0368" y2="-214.4572">
		<stop  offset="0" style="stop-color:#7684BE;stop-opacity:0"/>
		<stop  offset="1" style="stop-color:#7684BE"/>
	</linearGradient>
	<path class="st48" d="M-205.18-150.2l25.81-42.61l26.65,0.48c-5.57-18.09-3.68-38.39,6.9-55.85
		c19.67-32.47,61.94-42.84,94.41-23.17c4.2,2.54,8.03,5.47,11.47,8.7l-24.83,40.99c-1.73-4.72-5.01-8.91-9.64-11.72
		c-10.82-6.55-24.91-3.1-31.47,7.72c-6.56,10.82-3.1,24.91,7.72,31.47c2.54,1.54,5.25,2.52,8.01,3l0,0
		c2.28,0.39,4.58,0.42,6.84,0.12l-26.33,43.47L-205.18-150.2z"/>
	<linearGradient id="SVGID_49_" gradientUnits="userSpaceOnUse" x1="-302.3769" y1="-112.6312" x2="-187.4351" y2="-112.6312">
		<stop  offset="0" style="stop-color:#7684BE;stop-opacity:0"/>
		<stop  offset="1" style="stop-color:#7684BE"/>
	</linearGradient>
	<path class="st49" d="M-188.69-193.99L-286.95-31.8c-17.67-22.37-20.08-55.3-3.69-82.36l48.33-79.77L-188.69-193.99z"/>
	<linearGradient id="SVGID_50_" gradientUnits="userSpaceOnUse" x1="-281.7591" y1="-73.4837" x2="-114.3806" y2="-73.4837">
		<stop  offset="0" style="stop-color:#7684BE;stop-opacity:0"/>
		<stop  offset="1" style="stop-color:#7684BE"/>
	</linearGradient>
	<path class="st50" d="M-115.62-137.74l-25.82,42.61l-26.65-0.48c5.57,18.09,3.68,38.39-6.9,55.85
		c-19.67,32.47-61.94,42.84-94.41,23.17c-4.2-2.54-8.03-5.47-11.47-8.7l24.83-40.99c1.73,4.72,5.01,8.91,9.64,11.72
		c10.82,6.56,24.91,3.1,31.47-7.72c6.56-10.82,3.1-24.91-7.72-31.47c-2.54-1.54-5.25-2.52-8.01-3l0,0
		c-2.28-0.39-4.58-0.42-6.84-0.12l26.33-43.47L-115.62-137.74z"/>
	<linearGradient id="SVGID_51_" gradientUnits="userSpaceOnUse" x1="-364.1824" y1="358.8528" x2="-249.3246" y2="358.8528">
		<stop  offset="0" style="stop-color:#7684BE;stop-opacity:0"/>
		<stop  offset="1" style="stop-color:#7684BE"/>
	</linearGradient>
	<path class="st51" d="M-250.58,277.57l-98.16,162.03c-17.67-22.36-20.1-55.27-3.72-82.29l48.28-79.69L-250.58,277.57z"/>
	<linearGradient id="SVGID_52_" gradientUnits="userSpaceOnUse" x1="-343.5484" y1="397.9175" x2="-176.1711" y2="397.9175">
		<stop  offset="0" style="stop-color:#7684BE;stop-opacity:0"/>
		<stop  offset="1" style="stop-color:#7684BE"/>
	</linearGradient>
	<path class="st52" d="M-177.41,333.66l-25.82,42.61l-26.65-0.48c5.57,18.09,3.68,38.39-6.9,55.85
		c-19.67,32.47-61.94,42.84-94.41,23.17c-4.2-2.54-8.03-5.47-11.47-8.7l24.83-40.99c1.72,4.72,5.01,8.91,9.64,11.72
		c10.82,6.56,24.91,3.1,31.47-7.72c6.56-10.82,3.1-24.91-7.73-31.47c-2.54-1.54-5.25-2.52-8.01-2.99l0,0
		c-2.28-0.39-4.58-0.42-6.84-0.12l26.33-43.47L-177.41,333.66z"/>
	<linearGradient id="SVGID_53_" gradientUnits="userSpaceOnUse" x1="-195.151" y1="296.0919" x2="-80.2084" y2="296.0919">
		<stop  offset="0" style="stop-color:#7684BE;stop-opacity:0"/>
		<stop  offset="1" style="stop-color:#7684BE"/>
	</linearGradient>
	<path class="st53" d="M-193.89,377.45l98.26-162.19c17.67,22.37,20.08,55.3,3.68,82.35l-48.33,79.77L-193.89,377.45z"/>
	<linearGradient id="SVGID_54_" gradientUnits="userSpaceOnUse" x1="-268.2044" y1="256.9446" x2="-100.8271" y2="256.9446">
		<stop  offset="0" style="stop-color:#7684BE;stop-opacity:0"/>
		<stop  offset="1" style="stop-color:#7684BE"/>
	</linearGradient>
	<path class="st54" d="M-266.97,321.2l25.81-42.61l26.65,0.48c-5.57-18.09-3.68-38.39,6.9-55.85
		c19.67-32.47,61.94-42.84,94.41-23.17c4.2,2.54,8.03,5.47,11.47,8.7l-24.83,40.99c-1.72-4.72-5.01-8.91-9.64-11.72
		c-10.82-6.55-24.91-3.1-31.47,7.72c-6.56,10.82-3.1,24.91,7.73,31.47c2.54,1.54,5.25,2.52,8.01,2.99l0,0
		c2.28,0.39,4.58,0.42,6.84,0.12l-26.33,43.47L-266.97,321.2z"/>
	<linearGradient id="SVGID_55_" gradientUnits="userSpaceOnUse" x1="-263.596" y1="474.7141" x2="-148.7387" y2="474.7141">
		<stop  offset="0" style="stop-color:#7684BE;stop-opacity:0"/>
		<stop  offset="1" style="stop-color:#7684BE"/>
	</linearGradient>
	<path class="st55" d="M-150,393.44l-98.16,162.03c-17.67-22.36-20.1-55.27-3.72-82.29l48.28-79.7L-150,393.44z"/>
	<linearGradient id="SVGID_56_" gradientUnits="userSpaceOnUse" x1="-242.9622" y1="513.7785" x2="-75.5848" y2="513.7785">
		<stop  offset="0" style="stop-color:#7684BE;stop-opacity:0"/>
		<stop  offset="1" style="stop-color:#7684BE"/>
	</linearGradient>
	<path class="st56" d="M-76.82,449.52l-25.82,42.61l-26.65-0.48c5.57,18.09,3.68,38.39-6.9,55.85
		c-19.67,32.47-61.94,42.84-94.4,23.17c-4.2-2.54-8.03-5.47-11.47-8.7l24.83-40.99c1.72,4.72,5.01,8.91,9.64,11.72
		c10.82,6.55,24.91,3.1,31.47-7.72c6.56-10.82,3.1-24.91-7.73-31.47c-2.54-1.54-5.25-2.52-8.01-2.99l0,0
		c-2.28-0.39-4.58-0.42-6.84-0.12l26.33-43.47L-76.82,449.52z"/>
	<linearGradient id="SVGID_57_" gradientUnits="userSpaceOnUse" x1="-94.5647" y1="411.953" x2="20.3779" y2="411.953">
		<stop  offset="0" style="stop-color:#7684BE;stop-opacity:0"/>
		<stop  offset="1" style="stop-color:#7684BE"/>
	</linearGradient>
	<path class="st57" d="M-93.31,493.31L4.95,331.12c17.67,22.37,20.08,55.3,3.68,82.35l-48.33,79.77L-93.31,493.31z"/>
	<linearGradient id="SVGID_58_" gradientUnits="userSpaceOnUse" x1="-167.6181" y1="372.8056" x2="-0.2408" y2="372.8056">
		<stop  offset="0" style="stop-color:#7684BE;stop-opacity:0"/>
		<stop  offset="1" style="stop-color:#7684BE"/>
	</linearGradient>
	<path class="st58" d="M-166.38,437.06l25.81-42.61l26.65,0.48c-5.57-18.09-3.68-38.39,6.9-55.85
		c19.67-32.47,61.94-42.84,94.41-23.17c4.2,2.54,8.03,5.47,11.47,8.7l-24.83,40.99c-1.72-4.72-5.01-8.91-9.64-11.72
		c-10.82-6.55-24.91-3.1-31.47,7.72c-6.56,10.82-3.1,24.91,7.73,31.47c2.54,1.54,5.25,2.52,8.01,2.99l0,0
		c2.28,0.39,4.58,0.42,6.84,0.12l-26.33,43.47L-166.38,437.06z"/>
	<linearGradient id="SVGID_59_" gradientUnits="userSpaceOnUse" x1="112.6105" y1="642.8762" x2="227.4678" y2="642.8762">
		<stop  offset="0" style="stop-color:#7684BE;stop-opacity:0"/>
		<stop  offset="1" style="stop-color:#7684BE"/>
	</linearGradient>
	<path class="st59" d="M113.87,724.15l98.16-162.03c17.67,22.36,20.1,55.27,3.72,82.29l-48.28,79.69L113.87,724.15z"/>
	<linearGradient id="SVGID_60_" gradientUnits="userSpaceOnUse" x1="39.4559" y1="603.8104" x2="206.8343" y2="603.8104">
		<stop  offset="0" style="stop-color:#7684BE;stop-opacity:0"/>
		<stop  offset="1" style="stop-color:#7684BE"/>
	</linearGradient>
	<path class="st60" d="M40.69,668.06l25.81-42.61l26.65,0.48c-5.57-18.09-3.68-38.39,6.9-55.85c19.67-32.47,61.94-42.84,94.41-23.17
		c4.2,2.54,8.03,5.47,11.47,8.7L181.1,596.6c-1.72-4.72-5.01-8.91-9.64-11.72c-10.82-6.56-24.91-3.1-31.47,7.72
		c-6.56,10.82-3.1,24.91,7.72,31.47c2.54,1.54,5.25,2.52,8.01,3l0,0c2.28,0.39,4.58,0.42,6.84,0.12l-26.33,43.47L40.69,668.06z"/>
	<linearGradient id="SVGID_61_" gradientUnits="userSpaceOnUse" x1="-56.5062" y1="705.6357" x2="58.4357" y2="705.6357">
		<stop  offset="0" style="stop-color:#7684BE;stop-opacity:0"/>
		<stop  offset="1" style="stop-color:#7684BE"/>
	</linearGradient>
	<path class="st61" d="M57.18,624.27l-98.26,162.19c-17.66-22.37-20.08-55.3-3.68-82.35l48.33-79.77L57.18,624.27z"/>
	<linearGradient id="SVGID_62_" gradientUnits="userSpaceOnUse" x1="-35.8882" y1="744.7841" x2="131.4902" y2="744.7841">
		<stop  offset="0" style="stop-color:#7684BE;stop-opacity:0"/>
		<stop  offset="1" style="stop-color:#7684BE"/>
	</linearGradient>
	<path class="st62" d="M130.25,680.53l-25.82,42.61l-26.65-0.48c5.57,18.09,3.68,38.39-6.9,55.85
		c-19.67,32.47-61.94,42.84-94.41,23.17c-4.2-2.54-8.03-5.47-11.47-8.7L-10.15,752c1.72,4.72,5.01,8.91,9.64,11.72
		c10.82,6.55,24.91,3.1,31.47-7.72c6.56-10.82,3.1-24.91-7.72-31.47c-2.54-1.54-5.25-2.52-8.01-3l0,0
		c-2.28-0.39-4.58-0.42-6.84-0.12l26.33-43.47L130.25,680.53z"/>
	<linearGradient id="SVGID_63_" gradientUnits="userSpaceOnUse" x1="12.0243" y1="527.0145" x2="126.8815" y2="527.0145">
		<stop  offset="0" style="stop-color:#7684BE;stop-opacity:0"/>
		<stop  offset="1" style="stop-color:#7684BE"/>
	</linearGradient>
	<path class="st63" d="M13.28,608.29l98.16-162.03c17.67,22.36,20.1,55.27,3.72,82.3l-48.28,79.69L13.28,608.29z"/>
	<linearGradient id="SVGID_64_" gradientUnits="userSpaceOnUse" x1="-61.1303" y1="487.9493" x2="106.248" y2="487.9493">
		<stop  offset="0" style="stop-color:#7684BE;stop-opacity:0"/>
		<stop  offset="1" style="stop-color:#7684BE"/>
	</linearGradient>
	<path class="st64" d="M-59.89,552.2l25.81-42.61l26.65,0.48c-5.57-18.09-3.68-38.39,6.9-55.85c19.67-32.47,61.94-42.84,94.41-23.17
		c4.2,2.54,8.03,5.47,11.47,8.7l-24.83,40.99c-1.72-4.72-5.01-8.91-9.64-11.72c-10.82-6.56-24.91-3.1-31.47,7.72
		c-6.56,10.82-3.1,24.91,7.72,31.47c2.54,1.54,5.25,2.52,8.01,3l0,0c2.28,0.39,4.58,0.42,6.84,0.12L35.65,554.8L-59.89,552.2z"/>
	<linearGradient id="SVGID_65_" gradientUnits="userSpaceOnUse" x1="-157.0925" y1="589.7747" x2="-42.1506" y2="589.7747">
		<stop  offset="0" style="stop-color:#7684BE;stop-opacity:0"/>
		<stop  offset="1" style="stop-color:#7684BE"/>
	</linearGradient>
	<path class="st65" d="M-43.41,508.41l-98.26,162.19c-17.66-22.37-20.08-55.3-3.68-82.35l48.33-79.77L-43.41,508.41z"/>
	<linearGradient id="SVGID_66_" gradientUnits="userSpaceOnUse" x1="-136.4745" y1="628.9227" x2="30.9029" y2="628.9227">
		<stop  offset="0" style="stop-color:#7684BE;stop-opacity:0"/>
		<stop  offset="1" style="stop-color:#7684BE"/>
	</linearGradient>
	<path class="st66" d="M29.67,564.67L3.85,607.28l-26.65-0.48c5.57,18.09,3.68,38.39-6.9,55.85
		c-19.67,32.47-61.94,42.84-94.41,23.17c-4.2-2.54-8.03-5.47-11.47-8.7l24.83-40.99c1.72,4.72,5.01,8.91,9.64,11.72
		c10.82,6.55,24.91,3.1,31.47-7.72c6.56-10.82,3.1-24.91-7.72-31.47c-2.54-1.54-5.25-2.52-8.01-3l0,0
		c-2.28-0.39-4.58-0.42-6.84-0.12l26.33-43.47L29.67,564.67z"/>
	<linearGradient id="SVGID_67_" gradientUnits="userSpaceOnUse" x1="-493.9887" y1="-48.7552" x2="-379.0472" y2="-48.7552">
		<stop  offset="0" style="stop-color:#7684BE;stop-opacity:0"/>
		<stop  offset="1" style="stop-color:#7684BE"/>
	</linearGradient>
	<path class="st67" d="M-492.73,32.61l98.26-162.19c17.67,22.37,20.08,55.3,3.68,82.35l-48.33,79.77L-492.73,32.61z"/>
	<linearGradient id="SVGID_68_" gradientUnits="userSpaceOnUse" x1="-286.8146" y1="182.1674" x2="-171.9568" y2="182.1674">
		<stop  offset="0" style="stop-color:#7684BE;stop-opacity:0"/>
		<stop  offset="1" style="stop-color:#7684BE"/>
	</linearGradient>
	<path class="st68" d="M-285.56,263.45l98.16-162.03c17.67,22.36,20.1,55.27,3.72,82.29l-48.28,79.69L-285.56,263.45z"/>
	<linearGradient id="SVGID_69_" gradientUnits="userSpaceOnUse" x1="-359.9681" y1="143.1024" x2="-192.5909" y2="143.1024">
		<stop  offset="0" style="stop-color:#7684BE;stop-opacity:0"/>
		<stop  offset="1" style="stop-color:#7684BE"/>
	</linearGradient>
	<path class="st69" d="M-358.73,207.36l25.81-42.61l26.65,0.48c-5.57-18.09-3.68-38.39,6.9-55.85
		c19.67-32.47,61.94-42.84,94.41-23.17c4.2,2.54,8.03,5.47,11.47,8.7l-24.83,40.99c-1.72-4.72-5.01-8.91-9.64-11.72
		c-10.82-6.55-24.91-3.1-31.47,7.72c-6.56,10.82-3.1,24.91,7.73,31.47c2.54,1.54,5.25,2.52,8.01,2.99l0,0
		c2.28,0.39,4.58,0.42,6.84,0.12l-26.33,43.47L-358.73,207.36z"/>
	<linearGradient id="SVGID_70_" gradientUnits="userSpaceOnUse" x1="-455.931" y1="244.9276" x2="-340.9894" y2="244.9276">
		<stop  offset="0" style="stop-color:#7684BE;stop-opacity:0"/>
		<stop  offset="1" style="stop-color:#7684BE"/>
	</linearGradient>
	<path class="st70" d="M-342.25,163.57l-98.26,162.19c-17.67-22.37-20.08-55.3-3.68-82.35l48.33-79.77L-342.25,163.57z"/>
	<linearGradient id="SVGID_71_" gradientUnits="userSpaceOnUse" x1="-435.3121" y1="284.0752" x2="-267.9348" y2="284.0752">
		<stop  offset="0" style="stop-color:#7684BE;stop-opacity:0"/>
		<stop  offset="1" style="stop-color:#7684BE"/>
	</linearGradient>
	<path class="st71" d="M-269.17,219.82l-25.81,42.61l-26.65-0.48c5.57,18.09,3.68,38.39-6.9,55.85
		c-19.67,32.47-61.94,42.84-94.41,23.17c-4.2-2.54-8.03-5.47-11.47-8.7l24.83-40.99c1.72,4.72,5.01,8.91,9.64,11.72
		c10.82,6.56,24.91,3.1,31.47-7.72c6.56-10.82,3.1-24.91-7.72-31.47c-2.54-1.54-5.25-2.52-8.01-2.99l0,0
		c-2.28-0.39-4.58-0.42-6.84-0.12l26.33-43.47L-269.17,219.82z"/>
	<linearGradient id="SVGID_72_" gradientUnits="userSpaceOnUse" x1="-387.4009" y1="66.3063" x2="-272.5432" y2="66.3063">
		<stop  offset="0" style="stop-color:#7684BE;stop-opacity:0"/>
		<stop  offset="1" style="stop-color:#7684BE"/>
	</linearGradient>
	<path class="st72" d="M-386.14,147.58l98.16-162.03c17.67,22.36,20.1,55.27,3.72,82.29l-48.28,79.69L-386.14,147.58z"/>
	<linearGradient id="SVGID_73_" gradientUnits="userSpaceOnUse" x1="-460.5544" y1="27.2404" x2="-293.1772" y2="27.2404">
		<stop  offset="0" style="stop-color:#7684BE;stop-opacity:0"/>
		<stop  offset="1" style="stop-color:#7684BE"/>
	</linearGradient>
	<path class="st73" d="M-459.32,91.5l25.81-42.61l26.65,0.48c-5.57-18.09-3.68-38.39,6.9-55.85c19.67-32.47,61.94-42.84,94.41-23.17
		c4.2,2.54,8.03,5.47,11.47,8.7l-24.83,40.99c-1.72-4.72-5.01-8.91-9.64-11.72c-10.82-6.55-24.91-3.1-31.47,7.72
		c-6.56,10.82-3.1,24.91,7.72,31.47c2.54,1.54,5.25,2.52,8.01,3l0,0c2.28,0.39,4.58,0.42,6.84,0.12l-26.33,43.47L-459.32,91.5z"/>
	<linearGradient id="SVGID_74_" gradientUnits="userSpaceOnUse" x1="-556.5175" y1="129.0665" x2="-441.5757" y2="129.0665">
		<stop  offset="0" style="stop-color:#7684BE;stop-opacity:0"/>
		<stop  offset="1" style="stop-color:#7684BE"/>
	</linearGradient>
	<path class="st74" d="M-442.83,47.71l-98.26,162.19c-17.67-22.37-20.08-55.3-3.69-82.36l48.33-79.77L-442.83,47.71z"/>
	<linearGradient id="SVGID_75_" gradientUnits="userSpaceOnUse" x1="-535.8997" y1="168.214" x2="-368.5211" y2="168.214">
		<stop  offset="0" style="stop-color:#7684BE;stop-opacity:0"/>
		<stop  offset="1" style="stop-color:#7684BE"/>
	</linearGradient>
	<path class="st75" d="M-369.76,103.96l-25.81,42.61l-26.65-0.48c5.57,18.09,3.68,38.39-6.9,55.85
		c-19.67,32.47-61.94,42.84-94.41,23.17c-4.2-2.54-8.03-5.47-11.47-8.7l24.83-40.99c1.72,4.72,5.01,8.91,9.64,11.72
		c10.82,6.56,24.91,3.1,31.47-7.72c6.56-10.82,3.1-24.91-7.72-31.47c-2.54-1.54-5.25-2.52-8.01-3l0,0
		c-2.28-0.39-4.58-0.42-6.84-0.12l26.33-43.47L-369.76,103.96z"/>
</g>
<g>
	<g>
		<path class="st76" d="M233.43,620.9h5.02v30.82l18.1-15.75h7.37l-21.45,18.62L265.18,675h-7.07l-19.66-17.57V675h-5.02V620.9z"/>
		<path class="st76" d="M323.92,635.96V675h-4.95v-6.71c-2.11,2.56-4.47,4.48-7.09,5.78c-2.62,1.29-5.48,1.94-8.59,1.94
			c-5.53,0-10.24-2-14.15-6.01c-3.91-4.01-5.86-8.88-5.86-14.62c0-5.62,1.97-10.43,5.92-14.42c3.95-3.99,8.69-5.99,14.24-5.99
			c3.2,0,6.1,0.68,8.7,2.05c2.59,1.36,4.87,3.41,6.83,6.13v-7.18H323.92z M303.85,639.8c-2.79,0-5.37,0.69-7.74,2.06
			c-2.37,1.37-4.25,3.3-5.64,5.79c-1.4,2.48-2.1,5.11-2.1,7.88c0,2.75,0.7,5.37,2.11,7.88c1.41,2.51,3.3,4.46,5.68,5.86
			c2.38,1.4,4.93,2.1,7.65,2.1c2.75,0,5.35-0.69,7.81-2.08c2.46-1.39,4.35-3.26,5.68-5.63c1.33-2.36,1.99-5.03,1.99-7.99
			c0-4.51-1.49-8.29-4.46-11.32C311.86,641.32,308.2,639.8,303.85,639.8z"/>
		<path class="st76" d="M369.47,640.23l-3.23,3.34c-2.69-2.61-5.31-3.91-7.88-3.91c-1.63,0-3.03,0.54-4.19,1.61
			s-1.74,2.33-1.74,3.77c0,1.27,0.48,2.47,1.44,3.62c0.96,1.17,2.97,2.55,6.04,4.13c3.74,1.94,6.28,3.8,7.62,5.6
			c1.32,1.82,1.98,3.86,1.98,6.13c0,3.21-1.13,5.92-3.38,8.14c-2.25,2.22-5.07,3.34-8.44,3.34c-2.25,0-4.4-0.49-6.45-1.47
			c-2.05-0.98-3.74-2.33-5.08-4.05l3.16-3.59c2.57,2.89,5.29,4.34,8.16,4.34c2.01,0,3.73-0.65,5.14-1.94
			c1.41-1.29,2.12-2.81,2.12-4.56c0-1.44-0.47-2.71-1.4-3.84c-0.94-1.1-3.04-2.49-6.33-4.16c-3.52-1.82-5.92-3.61-7.19-5.38
			c-1.27-1.77-1.91-3.79-1.91-6.06c0-2.97,1.01-5.43,3.04-7.39c2.02-1.96,4.58-2.94,7.67-2.94
			C362.21,634.96,365.83,636.72,369.47,640.23z"/>
		<path class="st76" d="M392.98,620.9h5.02v22.06c2.03-2.68,4.27-4.68,6.71-6.01s5.08-1.99,7.93-1.99c2.92,0,5.51,0.74,7.77,2.22
			c2.26,1.48,3.93,3.47,5,5.97c1.08,2.5,1.61,6.42,1.61,11.75V675h-5.02v-18.62c0-4.5-0.18-7.5-0.54-9.01
			c-0.62-2.58-1.75-4.53-3.39-5.83c-1.64-1.3-3.79-1.96-6.44-1.96c-3.04,0-5.76,1-8.16,3.01c-2.4,2.01-3.99,4.5-4.75,7.46
			c-0.48,1.91-0.72,5.45-0.72,10.62V675h-5.02V620.9z"/>
		<path class="st76" d="M485.35,662.04l4.23,2.22c-1.39,2.73-2.99,4.93-4.81,6.6c-1.82,1.67-3.87,2.95-6.14,3.82
			s-4.85,1.31-7.72,1.31c-6.37,0-11.35-2.09-14.94-6.26c-3.59-4.17-5.39-8.89-5.39-14.15c0-4.95,1.52-9.36,4.56-13.24
			c3.85-4.93,9.01-7.39,15.48-7.39c6.66,0,11.97,2.52,15.94,7.57c2.82,3.56,4.26,8.01,4.31,13.35h-35.12
			c0.1,4.53,1.54,8.25,4.35,11.15c2.8,2.9,6.26,4.35,10.38,4.35c1.99,0,3.92-0.34,5.8-1.04c1.88-0.69,3.48-1.61,4.8-2.75
			C482.39,666.44,483.81,664.59,485.35,662.04z M485.35,651.53c-0.67-2.68-1.65-4.82-2.93-6.42c-1.28-1.6-2.97-2.89-5.08-3.87
			s-4.32-1.47-6.64-1.47c-3.83,0-7.12,1.23-9.88,3.7c-2.01,1.79-3.53,4.48-4.56,8.07H485.35z"/>
		<path class="st76" d="M531,620.9v4.91c-1.84-0.79-3.42-1.18-4.74-1.18c-0.98,0-1.79,0.2-2.44,0.59c-0.65,0.39-1.05,0.85-1.22,1.36
			c-0.17,0.51-0.25,1.88-0.25,4.11l0,5.27h8.15v4.34h-8.15L522.32,675h-5.02v-34.69h-5.13v-4.34h5.13v-6.1c0-2.8,0.26-4.8,0.77-5.99
			c0.51-1.2,1.39-2.16,2.62-2.89c1.23-0.73,2.72-1.09,4.47-1.09C526.78,619.89,528.73,620.23,531,620.9z"/>
	</g>
	<g>
		<path class="st76" d="M361.57,447.86v134.65c-20.04-7.08-34.4-26.2-34.4-48.66v-66.23L361.57,447.86z"/>
		<path class="st76" d="M430.36,447.86v37.4l-17.3,10.05c10.61,9.45,17.3,23.22,17.3,38.54c0,28.5-23.1,51.6-51.6,51.6
			c-3.69,0-7.28-0.39-10.75-1.12v-35.97c2.94,2.36,6.68,3.77,10.75,3.77c9.5,0,17.2-7.7,17.2-17.2c0-9.5-7.7-17.2-17.2-17.2
			c-2.23,0-4.35,0.42-6.31,1.19h0c-1.61,0.64-3.11,1.51-4.44,2.58v-38.15L430.36,447.86z"/>
		<polygon class="st76" points="368.02,483.35 430.36,447.86 430.36,485.25 413.07,495.31 368.02,521.5 		"/>
		<g class="st77">
			<g>
				<g>
					<defs>
						<path id="SVGID_76_" d="M378.77,517.73c9.5,0,17.2,7.7,17.2,17.2c0,1.91-0.32,3.74-0.89,5.45h34.88
							c0.27-2.14,0.41-4.32,0.41-6.53c0-15.33-6.68-29.09-17.3-38.54l-40.61,23.61h0C374.42,518.15,376.54,517.73,378.77,517.73"/>
					</defs>
					<use xlink:href="#SVGID_76_"  style="overflow:visible;fill:#FFFFFF;"/>
					<clipPath id="SVGID_77_">
						<use xlink:href="#SVGID_76_"  style="overflow:visible;"/>
					</clipPath>
					<defs>
						<filter id="Adobe_OpacityMaskFilter" filterUnits="userSpaceOnUse" x="352.95" y="470.23" width="96.94" height="95.22">
							<feColorMatrix  type="matrix" values="1 0 0 0 0  0 1 0 0 0  0 0 1 0 0  0 0 0 1 0"/>
						</filter>
					</defs>
					<mask maskUnits="userSpaceOnUse" x="352.95" y="470.23" width="96.94" height="95.22" id="SVGID_78_">
						<g class="st78">
							
								<linearGradient id="SVGID_79_" gradientUnits="userSpaceOnUse" x1="-9266.8389" y1="-855.1503" x2="-9265.8721" y2="-855.1503" gradientTransform="matrix(-24.5527 -42.5265 -42.5265 24.5527 -263474.0938 -372542.9688)">
								<stop  offset="0" style="stop-color:#000000"/>
								<stop  offset="0.0541" style="stop-color:#000000"/>
								<stop  offset="0.1533" style="stop-color:#050505"/>
								<stop  offset="0.2703" style="stop-color:#131313"/>
								<stop  offset="0.3962" style="stop-color:#2B2B2B"/>
								<stop  offset="0.5286" style="stop-color:#4C4C4C"/>
								<stop  offset="0.6659" style="stop-color:#777777"/>
								<stop  offset="0.8075" style="stop-color:#ABABAB"/>
								<stop  offset="0.9498" style="stop-color:#E8E8E8"/>
								<stop  offset="1" style="stop-color:#FFFFFF"/>
							</linearGradient>
							<polygon class="st79" points="386.94,565.45 352.95,506.57 415.89,470.23 449.88,529.11 							"/>
						</g>
					</mask>
					
						<rect x="365.07" y="483.85" transform="matrix(0.866 -0.5 0.5 0.866 -205.1419 270.0845)" class="st80" width="72.68" height="67.98"/>
				</g>
			</g>
		</g>
	</g>
</g>
</svg>
